# xmcd
#
# Track frame offsets:
#	150
#	9896
#	18513
#	27118
#	39293
#	51930
#	64027
#	74932
#	85061
#	97319
#	111285
#	123511
#	136719
#	147351
#	160543
#	172008
#	180123
#
# Disc length: 2514 seconds
#
# Revision: 2
# Processed by: cddbd v1.5.1PL0 Copyright (c) Steve Scherf et al.
# Submitted via: audiograbber 1.83.01
#
DISCID=df09d011
DTITLE=Various Artist - Truck Driving Songs CD 1
DYEAR=1980
DGENRE=Country
TTITLE0=Six Days On The Road - 01 - Dave Dudley
TTITLE1=Lights On The Hill - 02 - Lee Conway
TTITLE2=When The Big Rigs Roll - 03 - Nev Nicholls
TTITLE3=Take This Job And Shove It - 04 - Johhny Paycheck
TTITLE4=Folsom Prison Blues - 05 - Jonny Cash
TTITLE5=Okie From Muskogee - 06 - Merle Haggard
TTITLE6=King Of The Road - 07 - Roger Miller
TTITLE7=Blue Suede Shoes - 08 - Carl Perkins
TTITLE8=Wasted Days And Wasted Nights - 09 - Freddy Fender
TTITLE9=Teddy Bear Song - 10 - Barbara Fairchild
TTITLE10=Satin Sheets - 11 - Jeanne Pruett
TTITLE11=Rose Garden - 12 - Lynn Anderson
TTITLE12=Sally Was A Good Old Girl - 13 - Waylon Jennings
TTITLE13=Behind Closed Doors - 14 - Charlie Rich
TTITLE14=Help Me Make It Through The Night - 15 - Sammi Smith
TTITLE15=Blue Blue Day - 16 - Don Gibson
TTITLE16=Slow Down Old World - 17 - Willie Nelson
EXTD=
EXTT0=
EXTT1=
EXTT2=
EXTT3=
EXTT4=
EXTT5=
EXTT6=
EXTT7=
EXTT8=
EXTT9=
EXTT10=
EXTT11=
EXTT12=
EXTT13=
EXTT14=
EXTT15=
EXTT16=
PLAYORDER=
